<svg width="86" height="121" viewBox="0 0 86 121" fill="none" xmlns="http://www.w3.org/2000/svg">
<path d="M22.3966 71.7258C2.00454 57.783 2.00454 50.8116 2.00454 48.4878C2.00454 46.1639 2.00454 39.1925 22.3966 25.2497M22.3966 71.7258C2.00454 85.6687 2.00454 90.3163 2.00454 94.9639M22.3966 71.7258C42.7887 57.783 42.7887 50.8116 42.7887 48.4878C42.7887 46.1639 42.7887 39.1867 22.3966 25.2497M22.3966 25.2497C42.7887 11.3068 42.7887 6.65923 42.7887 2.01162M22.3966 25.2497L12.4822 17.9471C2 9.45361 2 5.72971 2 2" stroke="#9747FF" stroke-width="4" stroke-linecap="round" stroke-linejoin="round"/>
<path d="M53.8295 60.0952V71.5981M37.9927 80.4285H47.3122M74.4259 80.4285H83.75M74.4305 97.706H83.75M37.9927 97.706H47.3122M53.8295 106.688V118.185M67.568 106.682V118.19M67.5226 60.0952V71.5923M51.8538 106.38H69.8843C71.0888 106.38 72.244 105.768 73.0957 104.678C73.9474 103.589 74.4259 102.111 74.4259 100.57V77.4076C74.4259 75.8668 73.9474 74.3891 73.0957 73.2996C72.244 72.2101 71.0888 71.5981 69.8843 71.5981H51.8538C50.6493 71.5981 49.4941 72.2101 48.6424 73.2996C47.7907 74.3891 47.3122 75.8668 47.3122 77.4076V100.576C47.3122 102.117 47.7907 103.594 48.6424 104.684C49.4941 105.773 50.6493 106.385 51.8538 106.385V106.38Z" stroke="#9747FF" stroke-width="4" stroke-linecap="round"/>
</svg>
