<svg width="134" height="134" viewBox="0 0 134 134" fill="none" xmlns="http://www.w3.org/2000/svg">
<path d="M88.8611 33.5285C88.8611 35.566 89.2624 37.5835 90.0421 39.4659C90.8218 41.3483 91.9647 43.0587 93.4054 44.4994C94.8461 45.9402 96.5565 47.083 98.4389 47.8627C100.321 48.6424 102.339 49.0438 104.376 49.0438C106.414 49.0438 108.431 48.6424 110.314 47.8627C112.196 47.083 113.907 45.9402 115.347 44.4994C116.788 43.0587 117.931 41.3483 118.711 39.4659C119.49 37.5835 119.892 35.566 119.892 33.5285C119.892 29.4136 118.257 25.4672 115.347 22.5575C112.438 19.6478 108.491 18.0132 104.376 18.0132C100.261 18.0132 96.3151 19.6478 93.4054 22.5575C90.4957 25.4672 88.8611 29.4136 88.8611 33.5285Z" stroke="#9747FF" stroke-width="4.57143" stroke-linecap="round" stroke-linejoin="round"/>
<path d="M81.0986 80.084V72.3312C81.0986 66.1563 83.5516 60.2343 87.9179 55.868C92.2842 51.5017 98.2062 49.0487 104.381 49.0487C110.556 49.0487 116.478 51.5017 120.844 55.868C125.211 60.2343 127.664 66.1563 127.664 72.3312V80.084M63.1713 80.1032H127.664M34.4953 53.7148C38.8425 53.7148 43.0116 51.9878 46.0856 48.9139C49.1595 45.84 50.8864 41.6709 50.8864 37.3237C50.8864 32.9765 49.1595 28.8074 46.0856 25.7335C43.0116 22.6595 38.8425 20.9326 34.4953 20.9326C30.1481 20.9326 25.979 22.6595 22.9051 25.7335C19.8312 28.8074 18.1042 32.9765 18.1042 37.3237C18.1042 41.6709 19.8312 45.84 22.9051 48.9139C25.979 51.9878 30.1481 53.7148 34.4953 53.7148Z" stroke="#9747FF" stroke-width="4.57143" stroke-linecap="round" stroke-linejoin="round"/>
<path d="M63.1714 82.4C63.1714 74.7934 60.1497 67.4983 54.771 62.1196C49.3923 56.741 42.0972 53.7192 34.4906 53.7192C26.884 53.7192 19.5889 56.741 14.2102 62.1196C8.83153 67.4983 5.80981 74.7934 5.80981 82.4V94.6897H18.1091L22.2057 127.462H46.7851L50.8817 94.6897H63.1714V82.4Z" stroke="#9747FF" stroke-width="4.57143" stroke-linecap="round" stroke-linejoin="round"/>
</svg>
