<svg width="89" height="127" viewBox="0 0 89 127" fill="none" xmlns="http://www.w3.org/2000/svg">
<path d="M84.5426 18.1112C70.9182 18.1112 58.6881 15.0949 47.6521 1.58943C46.8177 0.571666 45.6867 0 44.5074 0C43.3282 0 42.1971 0.571666 41.3628 1.58943C30.2971 15.0949 18.0596 18.1112 4.45 18.1112C3.26979 18.1112 2.13791 18.6838 1.30337 19.703C0.468838 20.7223 0 22.1046 0 23.546V56.173C0 91.155 14.6108 114.932 43.0908 126.536C44.0055 126.908 44.9945 126.908 45.9092 126.536C74.3966 114.941 89 91.155 89 56.173V23.546C89 20.5478 86.9975 18.1112 84.5426 18.1112ZM81.5759 56.1639C81.5759 86.9249 69.4423 107.016 44.4926 117.541C19.5429 107.016 7.40925 86.9249 7.40925 56.1639V27.1239C19.1202 26.7707 32.2699 23.9627 44.5 10.43C56.7078 23.9536 69.865 26.7616 81.5759 27.1239V56.1639ZM40.7768 70.5843L60.4013 46.6168C60.7461 46.1957 61.1554 45.8617 61.6059 45.6338C62.0564 45.4059 62.5392 45.2886 63.0268 45.2886C63.5144 45.2886 63.9973 45.4059 64.4477 45.6338C64.8982 45.8617 65.3075 46.1957 65.6523 46.6168C65.9971 47.0379 66.2706 47.5378 66.4572 48.0879C66.6438 48.6381 66.7399 49.2278 66.7399 49.8233C66.7399 50.4188 66.6438 51.0085 66.4572 51.5587C66.2706 52.1088 65.9971 52.6088 65.6523 53.0298L43.4023 80.2038C43.0579 80.6256 42.6486 80.9603 42.1981 81.1886C41.7476 81.4169 41.2646 81.5344 40.7768 81.5344C40.2891 81.5344 39.8061 81.4169 39.3555 81.1886C38.905 80.9603 38.4958 80.6256 38.1513 80.2038L27.0263 66.6168C26.33 65.7664 25.9388 64.613 25.9388 63.4103C25.9388 62.2076 26.33 61.0542 27.0263 60.2038C27.7227 59.3534 28.6671 58.8756 29.6518 58.8756C30.6366 58.8756 31.581 59.3534 32.2773 60.2038L40.7768 70.5843Z" fill="white"/>
</svg>
