<?xml version="1.0" encoding="UTF-8"?>
<svg id="Layer_1" data-name="Layer 1" xmlns="http://www.w3.org/2000/svg" xmlns:xlink="http://www.w3.org/1999/xlink" viewBox="0 0 250 108.11547">
  <defs>
    <style>
      .cls-1 {
        fill: #0f1011;
      }

      .cls-2 {
        fill: url(#linear-gradient-2);
      }

      .cls-3 {
        fill: url(#linear-gradient);
      }
    </style>
    <linearGradient id="linear-gradient" x1="200.31906" y1="0" x2="200.31906" y2="108.11547" gradientUnits="userSpaceOnUse">
      <stop offset=".03902" stop-color="#774adf"/>
      <stop offset=".09123" stop-color="#8846ca"/>
      <stop offset=".23034" stop-color="#b23f97"/>
      <stop offset=".36144" stop-color="#d3396f"/>
      <stop offset=".48081" stop-color="#eb3553"/>
      <stop offset=".58455" stop-color="#f93242"/>
      <stop offset=".66098" stop-color="#ff323c"/>
      <stop offset=".72214" stop-color="#ff4233"/>
      <stop offset=".84305" stop-color="#ff6e1f"/>
      <stop offset="1" stop-color="#ffb000"/>
    </linearGradient>
    <linearGradient id="linear-gradient-2" x1="40.46237" y1="28.93291" x2="40.46237" y2="35.53003" gradientUnits="userSpaceOnUse">
      <stop offset=".03902" stop-color="#774adf"/>
      <stop offset=".09123" stop-color="#8846ca"/>
      <stop offset=".23034" stop-color="#b23f97"/>
      <stop offset=".36144" stop-color="#d3396f"/>
      <stop offset=".48081" stop-color="#eb3553"/>
      <stop offset=".58455" stop-color="#f93242"/>
      <stop offset=".66098" stop-color="#ff323c"/>
      <stop offset=".72214" stop-color="#ff4233"/>
      <stop offset=".84305" stop-color="#ff6e1f"/>
      <stop offset="1" stop-color="#ffb000"/>
    </linearGradient>
  </defs>
  <path class="cls-3" d="M239.18787,35.33193l-.64436-.37222c-1.57721-.91109-3.59438-.37099-4.50533,1.2063h0c-.91082,1.57709-.37083,3.59392,1.20616,4.50491l.64489.37254c4.7036,2.71217,7.51353,7.58071,7.51353,13.01123,0,5.4366-2.80992,10.29903-7.51353,13.01735l-56.11325,32.39981c-4.70972,2.7122-10.32349,2.7122-15.02709,0-4.70968-2.71832-7.51353-7.58682-7.51353-13.01735v-9.93253c-.4398.60474-.92851,1.17287-1.45996,1.70431-1.31943,1.31943-2.8588,2.36401-4.61807,3.1337-.17102.0733-.34208.1466-.51921.20767v4.88685c0,7.81895,4.03775,14.81938,10.81216,18.72888,3.38413,1.95471,7.09815,2.9321,10.81213,2.9321,3.7079,0,7.42803-.97739,10.81216-2.9321l56.11329-32.39984c6.76826-3.90946,10.81213-10.90988,10.81213-18.72884,0-7.81288-4.04387-14.81938-10.81213-18.72276ZM157.23537,21.65485c0-5.43048,2.80385-10.29291,7.51353-13.01123,2.35182-1.35608,4.92961-2.03416,7.51353-2.03416,2.57783,0,5.16174.67808,7.51356,2.03416l31.24239,18.03908c1.57716.91064,3.59392.37044,4.50473-1.20662h0c.91095-1.57731.37065-3.59445-1.20676-4.50523l-31.24177-18.03872c-6.77438-3.9095-14.85603-3.9095-21.62429,0-6.77441,3.90946-10.81216,10.90988-10.81216,18.72272v13.99474h6.59724v-13.99474Z"/>
  <g>
    <polygon class="cls-1" points="16.38336 59.60994 7.2569 39.92832 0 39.92832 12.75461 67.41685 20.01151 67.41685 32.76671 39.92832 25.50922 39.92832 16.38336 59.60994"/>
    <rect class="cls-1" x="37.16381" y="39.92832" width="6.59713" height="27.48853"/>
    <rect class="cls-2" x="37.16381" y="28.93291" width="6.59713" height="6.59713"/>
    <path class="cls-1" d="M71.14128,39.87058v2.19911c-1.06288-.83687-2.29071-1.53937-3.68344-2.08916-1.39277-.54975-2.9871-.82464-4.78302-.82464-2.01582,0-3.87896.37873-5.58324,1.13007-1.70428.75138-3.17646,1.78373-4.42259,3.10316-1.24613,1.31947-2.21741,2.8588-2.9138,4.61807-.69635,1.75927-1.04454,3.65291-1.04454,5.66265,0,1.97917.34819,3.84839,1.04454,5.60766.69639,1.75927,1.66766,3.29864,2.9138,4.61807s2.71832,2.3579,4.42259,3.10928c1.70428.75134,3.56742,1.12395,5.58324,1.12395,2.23572,0,4.19658-.42149,5.88255-1.26448,1.14841-.48868,2.58391-1.52103,2.58391-1.52103v2.07081h6.59724v-27.54353h-6.59724ZM68.7895,59.3508c-1.32559,1.26448-2.59614,1.63098-2.59614,1.63098-.87963.36654-1.86922.54979-2.96879.54979-1.06288,0-2.083-.18936-3.05428-.57421-.97124-.38484-1.82034-.96516-2.55337-1.73485-1.53933-1.53933-2.30902-3.38413-2.30902-5.55266,0-2.19911.76968-4.06832,2.30902-5.60766.73304-.73304,1.58213-1.29501,2.55337-1.70431.97128-.40315,1.9914-.60474,3.05428-.60474,2.19911,0,4.06832.76968,5.60769,2.30905s2.30902,3.40855,2.30902,5.60766c0,2.13188-.80633,4.21489-2.35178,5.68096Z"/>
    <rect class="cls-1" x="84.33396" y="28.93291" width="6.59713" height="38.48395"/>
    <path class="cls-1" d="M123.77876,48.0072c-.75134-1.75927-1.78369-3.2986-3.10312-4.61807-1.31947-1.31943-2.8588-2.35178-4.61807-3.10316-1.76538-.75134-3.65295-1.13007-5.66265-1.13007-2.02193,0-3.90338.37873-5.66265,1.13007-1.76535.75138-3.2986,1.78373-4.61807,3.10316-1.32555,1.31947-2.3579,2.8588-3.10924,4.61807-.75138,1.75927-1.12399,3.65291-1.12399,5.66265,0,1.97917.37261,3.84839,1.12399,5.60766.75134,1.75927,1.78369,3.29864,3.10924,4.61807,1.31947,1.31943,2.85273,2.3579,4.61807,3.10928,1.75927.75134,3.64072,1.12395,5.66265,1.12395,2.0097,0,3.89727-.37261,5.66265-1.12395,1.75927-.75138,3.2986-1.78984,4.61807-3.10928,1.31943-1.31943,2.35178-2.8588,3.10312-4.61807.75138-1.75927,1.12399-3.62849,1.12399-5.60766,0-2.00974-.37261-3.90338-1.12399-5.66265ZM115.99645,59.22251c-.76357.76968-1.63098,1.35001-2.5778,1.73485-.95905.38484-1.96698.57421-3.02375.57421-1.069,0-2.083-.18936-3.05428-.57421s-1.82645-.96516-2.55337-1.73485c-1.53937-1.53933-2.30905-3.38413-2.30905-5.55266,0-2.19911.76968-4.06832,2.30905-5.60766,1.53937-1.53937,3.40859-2.30905,5.60766-2.30905,2.11965,0,3.98887.76968,5.60154,2.30905,1.54548,1.53933,2.31517,3.40855,2.31517,5.60766,0,2.16853-.76968,4.01333-2.31517,5.55266Z"/>
    <path class="cls-1" d="M150.63514,42.07228c-1.09942-.84231-2.38258-1.54802-3.84828-2.11652-1.46629-.56791-3.15271-.85186-5.05806-.85186-1.97932,0-3.80294.37582-5.47027,1.12686-1.66792.75164-3.09723,1.78664-4.28792,3.10618-1.19189,1.31955-2.11652,2.85862-2.77629,4.61781s-.98966,3.64784-.98966,5.66295c0,2.0163.38477,3.90316,1.1543,5.66235s1.81408,3.29886,3.13362,4.61841,2.85921,2.35514,4.61841,3.10618c1.75919.75045,3.62815,1.12686,5.60747,1.12686h.10976c1.90535,0,3.68363-.32989,5.33306-.98966l-2.47385-6.15748c-.8799.36687-1.86955.55001-2.96898.55001-2.12607,0-3.99502-.76954-5.60747-2.3092-1.53967-1.53907-2.3092-3.40863-2.3092-5.60747,0-2.12547.76954-3.99443,2.3092-5.60747,1.61245-1.53967,3.4814-2.3092,5.60747-2.3092,2.19884,0,4.0684.76954,5.60747,2.3092,1.53967,1.61304,2.3092,3.482,2.3092,5.60747v11.0503c0,2.16305-.76954,4.01352-2.3092,5.55259-1.50328,1.57546-3.37224,2.36409-5.60747,2.36409-1.46629,0-2.78584-.36687-3.95804-1.09942l-4.78305,4.72817c1.24557.95267,2.60151,1.68522,4.0678,2.19884,1.4657.51302,3.02386.76954,4.67329.76954,2.01511,0,3.90316-.38477,5.66295-1.1543,1.75919-.76954,3.29827-1.81408,4.61781-3.13362s2.35454-2.85921,3.10618-4.61841c.75104-1.75919,1.12686-3.62815,1.12686-5.60747v-24.73968h-6.59713v2.14396Z"/>
    <path class="cls-1" d="M182.19148,55.04314c0,1.76435-.6593,3.49007-1.91864,4.72578-1.25982,1.23617-2.79747,1.84254-4.61235,1.81971-1.66347-.02093-3.23361-.69318-4.41034-1.86914-1.28323-1.28239-1.92364-2.7848-1.92364-4.50784v-15.28334h-6.59713v15.28334c0,1.79678.28336,3.4826.85186,5.05806.56791,1.57665,1.37443,2.95108,2.41956,4.12328,1.04454,1.17339,2.29906,2.09863,3.76536,2.77629,1.4657.67767,3.09723,1.0171,4.89341,1.0171,1.53907,0,2.93139-.26606,4.17816-.79698,1.24557-.53092,2.36409-1.21813,3.35374-2.06164v2.08908h6.59713v-27.48853h-6.59713v15.11482Z"/>
    <path class="cls-1" d="M222.3771,56.96845c.25655-1.02012.38484-2.11965.38484-3.2986,0-2.00974-.37261-3.90338-1.12399-5.66265-.75134-1.75927-1.7898-3.2986-3.10924-4.61807-1.31947-1.31943-2.8588-2.35178-4.61807-3.10316-1.75927-.75134-3.64683-1.13007-5.66265-1.13007s-3.90338.37873-5.66265,1.13007c-1.75927.75138-3.2986,1.78373-4.61807,3.10316-1.31943,1.31947-2.35178,2.8588-3.10316,4.61807-.75134,1.75927-1.13007,3.65291-1.13007,5.66265,0,1.97917.37873,3.84839,1.13007,5.60766.75138,1.75927,1.78373,3.29864,3.10316,4.61807,1.31947,1.31943,2.8588,2.3579,4.61807,3.10928,1.75927.75134,3.64683,1.12395,5.66265,1.12395,2.19907,0,4.23323-.42761,6.10245-1.2889,1.86922-.86133,3.46354-2.0647,4.78302-3.60407l-6.87213-2.74885c-1.17283.7025-2.51061,1.04458-4.01333,1.04458-1.06288,0-2.07081-.18936-3.02375-.57421s-1.81423-.96516-2.58391-1.73485c-.69639-.6597-1.22783-1.40496-1.59433-2.25406h21.33109ZM202.64033,48.06219c1.61267-1.53937,3.48189-2.30905,5.60766-2.30905,2.19907,0,4.06829.76968,5.60766,2.30905.69639.70246,1.22783,1.47215,1.59433,2.30902h-14.40397c.3665-.83687.89794-1.60656,1.59433-2.30902Z"/>
  </g>
</svg>